<svg width="79" height="12" viewBox="0 0 79 12" fill="none" xmlns="http://www.w3.org/2000/svg">
<path d="M0 0.000110626H3.93182L6.63636 6.59102H6.77273L9.47727 0.000110626H13.4091V11.6365H10.3182V4.9092H10.2273L7.63636 11.5456H5.77273L3.18182 4.86375H3.09091V11.6365H0V0.000110626ZM19.1335 11.7956C18.2017 11.7956 17.3987 11.6175 16.7244 11.2615C16.054 10.9016 15.5369 10.3865 15.1733 9.71602C14.8134 9.04178 14.6335 8.23496 14.6335 7.29557C14.6335 6.39405 14.8153 5.60617 15.179 4.93193C15.5426 4.25769 16.0559 3.73307 16.7188 3.35807C17.3816 2.98307 18.1638 2.79557 19.0653 2.79557C19.7244 2.79557 20.321 2.89784 20.8551 3.10238C21.3892 3.30693 21.8456 3.60428 22.2244 3.99443C22.6032 4.38079 22.8949 4.85049 23.0994 5.40352C23.304 5.95655 23.4062 6.57966 23.4062 7.27284V8.00011H15.6108V6.27284H20.5199C20.5161 6.02284 20.4517 5.80314 20.3267 5.61375C20.2055 5.42057 20.0407 5.27094 19.8324 5.16488C19.6278 5.05503 19.3949 5.00011 19.1335 5.00011C18.8797 5.00011 18.6468 5.05503 18.4347 5.16488C18.2225 5.27094 18.0521 5.41867 17.9233 5.60807C17.7983 5.79746 17.732 6.01905 17.7244 6.27284V8.13647C17.7244 8.41678 17.7831 8.66678 17.9006 8.88647C18.018 9.10617 18.1866 9.27852 18.4062 9.40352C18.6259 9.52852 18.8911 9.59102 19.2017 9.59102C19.4176 9.59102 19.6146 9.56072 19.7926 9.50011C19.9744 9.4395 20.1297 9.35238 20.2585 9.23875C20.3873 9.12132 20.482 8.98117 20.5426 8.81829H23.4062C23.3078 9.42435 23.0748 9.95087 22.7074 10.3978C22.34 10.841 21.8532 11.1857 21.2472 11.4319C20.6449 11.6744 19.9403 11.7956 19.1335 11.7956ZM27.1179 11.7728C26.5611 11.7728 26.0687 11.6819 25.6406 11.5001C25.2164 11.3145 24.883 11.0342 24.6406 10.6592C24.3982 10.2842 24.277 9.80693 24.277 9.22738C24.277 8.75011 24.3584 8.34291 24.5213 8.00579C24.6842 7.66488 24.9115 7.38647 25.2031 7.17057C25.4948 6.95466 25.8338 6.78988 26.2202 6.67625C26.6103 6.56261 27.0308 6.48875 27.4815 6.45466C27.9702 6.41678 28.3622 6.37132 28.6577 6.31829C28.9569 6.26147 29.1728 6.18382 29.3054 6.08534C29.438 5.98307 29.5043 5.8486 29.5043 5.68193V5.6592C29.5043 5.43193 29.4171 5.25769 29.2429 5.13647C29.0687 5.01526 28.8452 4.95466 28.5724 4.95466C28.2732 4.95466 28.0289 5.02094 27.8395 5.15352C27.6539 5.28231 27.5421 5.48117 27.5043 5.75011H24.6179C24.6558 5.21981 24.8243 4.73117 25.1236 4.2842C25.4266 3.83344 25.8679 3.4736 26.4474 3.20466C27.027 2.93193 27.7505 2.79557 28.6179 2.79557C29.2429 2.79557 29.8035 2.86943 30.2997 3.01716C30.7959 3.1611 31.2183 3.36375 31.5668 3.62511C31.9152 3.88269 32.1804 4.18572 32.3622 4.5342C32.5478 4.8789 32.6406 5.2539 32.6406 5.6592V11.6365H29.7088V10.4092H29.6406C29.4664 10.735 29.2543 10.9982 29.0043 11.199C28.758 11.3997 28.4759 11.5456 28.1577 11.6365C27.8433 11.7274 27.4967 11.7728 27.1179 11.7728ZM28.1406 9.79557C28.3793 9.79557 28.6027 9.74632 28.8111 9.64784C29.0232 9.54935 29.1955 9.40731 29.3281 9.2217C29.4607 9.0361 29.527 8.81072 29.527 8.54557V7.81829C29.4437 7.85238 29.3546 7.88458 29.2599 7.91488C29.169 7.94519 29.0705 7.9736 28.9645 8.00011C28.8622 8.02663 28.7524 8.05125 28.6349 8.07397C28.5213 8.0967 28.402 8.11754 28.277 8.13647C28.0346 8.17435 27.8357 8.23685 27.6804 8.32397C27.5289 8.40731 27.4152 8.51147 27.3395 8.63647C27.2675 8.75769 27.2315 8.89405 27.2315 9.04557C27.2315 9.28799 27.3168 9.4736 27.4872 9.60238C27.6577 9.73117 27.8755 9.79557 28.1406 9.79557ZM37.2756 0.000110626V11.6365H34.1392V0.000110626H37.2756Z" fill="#A40628"/>
<path d="M38.8281 11.6365V0.000110626H43.8736C44.7599 0.000110626 45.5043 0.119429 46.1065 0.358066C46.7126 0.596702 47.169 0.933823 47.4759 1.36943C47.7865 1.80503 47.9418 2.31829 47.9418 2.9092C47.9418 3.33723 47.8471 3.72738 47.6577 4.07966C47.4721 4.43193 47.2107 4.72738 46.8736 4.96602C46.5365 5.20087 46.1425 5.36375 45.6918 5.45466V5.56829C46.1918 5.58723 46.6463 5.71413 47.0554 5.94897C47.4645 6.18003 47.7902 6.50011 48.0327 6.9092C48.2751 7.3145 48.3963 7.79178 48.3963 8.34102C48.3963 8.97738 48.2296 9.54367 47.8963 10.0399C47.5668 10.5361 47.0971 10.9262 46.4872 11.2103C45.8774 11.4944 45.1501 11.6365 44.3054 11.6365H38.8281ZM41.9872 9.11375H43.4645C43.9948 9.11375 44.3925 9.01526 44.6577 8.81829C44.9228 8.61754 45.0554 8.32208 45.0554 7.93193C45.0554 7.6592 44.9929 7.42814 44.8679 7.23875C44.7429 7.04935 44.5649 6.90541 44.3338 6.80693C44.1065 6.70844 43.8319 6.6592 43.5099 6.6592H41.9872V9.11375ZM41.9872 4.70466H43.2827C43.5592 4.70466 43.8035 4.6611 44.0156 4.57397C44.2277 4.48685 44.3925 4.36185 44.5099 4.19897C44.6312 4.03231 44.6918 3.82966 44.6918 3.59102C44.6918 3.23117 44.563 2.95655 44.3054 2.76716C44.0478 2.57397 43.7221 2.47738 43.3281 2.47738H41.9872V4.70466ZM53.7656 11.7956C52.8187 11.7956 52.008 11.6081 51.3338 11.2331C50.6596 10.8543 50.1425 10.3278 49.7827 9.65352C49.4228 8.97549 49.2429 8.1895 49.2429 7.29557C49.2429 6.40163 49.4228 5.61753 49.7827 4.94329C50.1425 4.26526 50.6596 3.73875 51.3338 3.36375C52.008 2.98496 52.8187 2.79557 53.7656 2.79557C54.7126 2.79557 55.5232 2.98496 56.1974 3.36375C56.8717 3.73875 57.3887 4.26526 57.7486 4.94329C58.1084 5.61753 58.2884 6.40163 58.2884 7.29557C58.2884 8.1895 58.1084 8.97549 57.7486 9.65352C57.3887 10.3278 56.8717 10.8543 56.1974 11.2331C55.5232 11.6081 54.7126 11.7956 53.7656 11.7956ZM53.7884 9.47738C54.0535 9.47738 54.2827 9.38837 54.4759 9.21034C54.669 9.03231 54.8187 8.77852 54.9247 8.44897C55.0308 8.11943 55.0838 7.72738 55.0838 7.27284C55.0838 6.8145 55.0308 6.42246 54.9247 6.0967C54.8187 5.76716 54.669 5.51337 54.4759 5.33534C54.2827 5.15731 54.0535 5.06829 53.7884 5.06829C53.508 5.06829 53.2675 5.15731 53.0668 5.33534C52.866 5.51337 52.7126 5.76716 52.6065 6.0967C52.5005 6.42246 52.4474 6.8145 52.4474 7.27284C52.4474 7.72738 52.5005 8.11943 52.6065 8.44897C52.7126 8.77852 52.866 9.03231 53.0668 9.21034C53.2675 9.38837 53.508 9.47738 53.7884 9.47738ZM63.7656 11.7956C62.8187 11.7956 62.008 11.6081 61.3338 11.2331C60.6596 10.8543 60.1425 10.3278 59.7827 9.65352C59.4228 8.97549 59.2429 8.1895 59.2429 7.29557C59.2429 6.40163 59.4228 5.61753 59.7827 4.94329C60.1425 4.26526 60.6596 3.73875 61.3338 3.36375C62.008 2.98496 62.8187 2.79557 63.7656 2.79557C64.7126 2.79557 65.5232 2.98496 66.1974 3.36375C66.8717 3.73875 67.3887 4.26526 67.7486 4.94329C68.1084 5.61753 68.2884 6.40163 68.2884 7.29557C68.2884 8.1895 68.1084 8.97549 67.7486 9.65352C67.3887 10.3278 66.8717 10.8543 66.1974 11.2331C65.5232 11.6081 64.7126 11.7956 63.7656 11.7956ZM63.7884 9.47738C64.0535 9.47738 64.2827 9.38837 64.4759 9.21034C64.669 9.03231 64.8187 8.77852 64.9247 8.44897C65.0308 8.11943 65.0838 7.72738 65.0838 7.27284C65.0838 6.8145 65.0308 6.42246 64.9247 6.0967C64.8187 5.76716 64.669 5.51337 64.4759 5.33534C64.2827 5.15731 64.0535 5.06829 63.7884 5.06829C63.508 5.06829 63.2675 5.15731 63.0668 5.33534C62.866 5.51337 62.7126 5.76716 62.6065 6.0967C62.5005 6.42246 62.4474 6.8145 62.4474 7.27284C62.4474 7.72738 62.5005 8.11943 62.6065 8.44897C62.7126 8.77852 62.866 9.03231 63.0668 9.21034C63.2675 9.38837 63.508 9.47738 63.7884 9.47738ZM72.3793 9.56829L72.402 5.84102H72.8111L74.9247 2.9092H78.4474L74.902 7.47738H74.0156L72.3793 9.56829ZM69.5611 11.6365V0.000110626H72.6974V11.6365H69.5611ZM74.9474 11.6365L72.9474 8.18193L74.9929 5.95466L78.5384 11.6365H74.9474Z" fill="#190107"/>
</svg>
